{
    "accessors": [
        {
            "bufferView": 1,
            "byteOffset": 0,
            "componentType": 5126,
            "count": 2414,
            "max": [
                512.0,
                6528.0,
                1344.0
            ],
            "min": [
                -4096.0,
                512.0,
                -1216.0
            ],
            "type": "VEC3"
        },
        {
            "bufferView": 1,
            "byteOffset": 12,
            "componentType": 5126,
            "count": 2414,
            "type": "VEC3"
        },
        {
            "bufferView": 1,
            "byteOffset": 24,
            "componentType": 5126,
            "count": 2414,
            "type": "VEC2"
        },
        {
            "bufferView": 1,
            "byteOffset": 32,
            "componentType": 5126,
            "count": 2414,
            "type": "VEC2"
        },
        {
            "bufferView": 0,
            "byteOffset": 0,
            "componentType": 5125,
            "count": 864,
            "type": "SCALAR"
        },
        {
            "bufferView": 0,
            "byteOffset": 3456,
            "componentType": 5125,
            "count": 318,
            "type": "SCALAR"
        },
        {
            "bufferView": 0,
            "byteOffset": 4728,
            "componentType": 5125,
            "count": 2562,
            "type": "SCALAR"
        },
        {
            "bufferView": 0,
            "byteOffset": 14976,
            "componentType": 5125,
            "count": 318,
            "type": "SCALAR"
        },
        {
            "bufferView": 3,
            "byteOffset": 0,
            "componentType": 5126,
            "count": 1734,
            "max": [
                512.0,
                6528.0,
                180.15499877929688
            ],
            "min": [
                -4096.0,
                512.0,
                -1100.9599609375
            ],
            "type": "VEC3"
        },
        {
            "bufferView": 3,
            "byteOffset": 12,
            "componentType": 5126,
            "count": 1734,
            "type": "VEC3"
        },
        {
            "bufferView": 3,
            "byteOffset": 24,
            "componentType": 5126,
            "count": 1734,
            "type": "VEC2"
        },
        {
            "bufferView": 3,
            "byteOffset": 32,
            "componentType": 5126,
            "count": 1734,
            "type": "VEC2"
        },
        {
            "bufferView": 3,
            "byteOffset": 40,
            "componentType": 5126,
            "count": 1734,
            "type": "VEC4"
        },
        {
            "bufferView": 2,
            "byteOffset": 0,
            "componentType": 5125,
            "count": 7680,
            "type": "SCALAR"
        },
        {
            "bufferView": 2,
            "byteOffset": 30720,
            "componentType": 5125,
            "count": 1536,
            "type": "SCALAR"
        }
    ],
    "asset": {
        "generator": "bsp-converter by lewa_j v0.11 - 2022",
        "version": "2.0"
    },
    "bufferViews": [
        {
            "buffer": 0,
            "byteLength": 16248,
            "byteOffset": 193664,
            "target": 34963
        },
        {
            "buffer": 0,
            "byteLength": 96560,
            "byteOffset": 0,
            "byteStride": 40,
            "target": 34962
        },
        {
            "buffer": 0,
            "byteLength": 36864,
            "byteOffset": 209912,
            "target": 34963
        },
        {
            "buffer": 0,
            "byteLength": 97104,
            "byteOffset": 96560,
            "byteStride": 56,
            "target": 34962
        }
    ],
    "buffers": [
        {
            "byteLength": 246776,
            "uri": "vapor_vapor.bin"
        }
    ],
    "images": [
        {
            "uri": "vapor_vapor_lightmap0.png"
        }
    ],
    "materials": [
        {
            "extensions": {
                "EXT_materials_lightmap": {
                    "lightmapTexture": {
                        "index": 0,
                        "texCoord": 1
                    }
                }
            },
            "name": "tools/toolsskybox",
            "pbrMetallicRoughness": {
                "metallicFactor": 0
            }
        },
        {
            "extensions": {
                "EXT_materials_lightmap": {
                    "lightmapTexture": {
                        "index": 0,
                        "texCoord": 1
                    }
                }
            },
            "name": "tools/toolsnodraw",
            "pbrMetallicRoughness": {
                "metallicFactor": 0
            }
        },
        {
            "extensions": {
                "EXT_materials_lightmap": {
                    "lightmapTexture": {
                        "index": 0,
                        "texCoord": 1
                    }
                }
            },
            "name": "gm_construct/water_13",
            "pbrMetallicRoughness": {
                "metallicFactor": 0
            }
        },
        {
            "extensions": {
                "EXT_materials_lightmap": {
                    "lightmapTexture": {
                        "index": 0,
                        "texCoord": 1
                    }
                }
            },
            "name": "nature/blendsandgrass008a",
            "pbrMetallicRoughness": {
                "metallicFactor": 0
            }
        },
        {
            "extensions": {
                "EXT_materials_lightmap": {
                    "lightmapTexture": {
                        "index": 0,
                        "texCoord": 1
                    }
                }
            },
            "name": "building_template/building_template010a",
            "pbrMetallicRoughness": {
                "metallicFactor": 0
            }
        },
        {
            "extensions": {
                "EXT_materials_lightmap": {
                    "lightmapTexture": {
                        "index": 0,
                        "texCoord": 1
                    }
                }
            },
            "name": "gm_construct/water_13_beneath",
            "pbrMetallicRoughness": {
                "metallicFactor": 0
            }
        }
    ],
    "meshes": [
        {
            "name": "vapor_vapor_mesh0_0",
            "primitives": [
                {
                    "attributes": {
                        "NORMAL": 1,
                        "POSITION": 0,
                        "TEXCOORD_0": 2,
                        "TEXCOORD_1": 3
                    },
                    "indices": 4,
                    "material": 0
                },
                {
                    "attributes": {
                        "NORMAL": 1,
                        "POSITION": 0,
                        "TEXCOORD_0": 2,
                        "TEXCOORD_1": 3
                    },
                    "indices": 5,
                    "material": 2
                },
                {
                    "attributes": {
                        "NORMAL": 1,
                        "POSITION": 0,
                        "TEXCOORD_0": 2,
                        "TEXCOORD_1": 3
                    },
                    "indices": 6,
                    "material": 4
                },
                {
                    "attributes": {
                        "NORMAL": 1,
                        "POSITION": 0,
                        "TEXCOORD_0": 2,
                        "TEXCOORD_1": 3
                    },
                    "indices": 7,
                    "material": 5
                }
            ]
        },
        {
            "name": "vapor_vapor_dispMesh0_0",
            "primitives": [
                {
                    "attributes": {
                        "COLOR_0": 12,
                        "NORMAL": 9,
                        "POSITION": 8,
                        "TEXCOORD_0": 10,
                        "TEXCOORD_1": 11
                    },
                    "indices": 13,
                    "material": 1
                },
                {
                    "attributes": {
                        "COLOR_0": 12,
                        "NORMAL": 9,
                        "POSITION": 8,
                        "TEXCOORD_0": 10,
                        "TEXCOORD_1": 11
                    },
                    "indices": 14,
                    "material": 3
                }
            ]
        }
    ],
    "nodes": [
        {
            "children": [
                1
            ],
            "name": "vapor_vapor",
            "rotation": [
                -0.7071067690849304,
                0,
                0,
                0.7071067690849304
            ],
            "scale": [
                0.03,
                0.03,
                0.03
            ]
        },
        {
            "children": [
                2,
                3
            ],
            "name": "*0"
        },
        {
            "mesh": 0,
            "name": "vapor_vapor_mesh0_0"
        },
        {
            "mesh": 1,
            "name": "vapor_vapor_dispMesh0_0"
        }
    ],
    "scene": 0,
    "scenes": [
        {
            "nodes": [
                0
            ]
        }
    ],
    "textures": [
        {
            "source": 0
        }
    ]
}
